<mxfile host="Electron" agent="Mozilla/5.0 (X11; Linux x86_64) AppleWebKit/537.36 (KHTML, like Gecko) draw.io/24.7.17 Chrome/128.0.6613.36 Electron/32.0.1 Safari/537.36" version="24.7.17">
  <diagram id="NvDe63J_OZOypiHwj0tI" name="Page-1">
    <mxGraphModel dx="928" dy="578" grid="1" gridSize="10" guides="1" tooltips="1" connect="1" arrows="1" fold="1" page="1" pageScale="1" pageWidth="850" pageHeight="1100" math="0" shadow="0">
      <root>
        <mxCell id="0" />
        <mxCell id="1" parent="0" />
        <mxCell id="sMfxZAHeSW23RDgXS9Ej-45" value="" style="rounded=0;whiteSpace=wrap;html=1;glass=0;comic=0;sketch=0;fontSize=22;fillColor=#d5e8d4;strokeColor=none;opacity=50;connectable=0;allowArrows=0;" parent="1" vertex="1">
          <mxGeometry x="120" y="30" width="850" height="100" as="geometry" />
        </mxCell>
        <mxCell id="sMfxZAHeSW23RDgXS9Ej-12" value="" style="rounded=0;whiteSpace=wrap;html=1;glass=0;comic=0;sketch=0;fontSize=22;fillColor=#dae8fc;strokeColor=none;opacity=50;connectable=0;allowArrows=0;" parent="1" vertex="1">
          <mxGeometry x="120" y="130" width="850" height="280" as="geometry" />
        </mxCell>
        <mxCell id="ekC-Y903MRdc_zd-h8_r-52" value="" style="rounded=0;whiteSpace=wrap;html=1;glass=0;comic=0;sketch=0;fontSize=22;fillColor=#ffe6cc;strokeColor=none;opacity=50;connectable=0;allowArrows=0;" parent="1" vertex="1">
          <mxGeometry x="120" y="970" width="850" height="100" as="geometry" />
        </mxCell>
        <mxCell id="ekC-Y903MRdc_zd-h8_r-51" value="" style="rounded=0;whiteSpace=wrap;html=1;glass=0;comic=0;sketch=0;fontSize=22;fillColor=#e1d5e7;strokeColor=none;opacity=50;connectable=0;allowArrows=0;" parent="1" vertex="1">
          <mxGeometry x="120" y="410" width="850" height="190" as="geometry" />
        </mxCell>
        <mxCell id="ekC-Y903MRdc_zd-h8_r-50" value="" style="rounded=0;whiteSpace=wrap;html=1;glass=0;comic=0;sketch=0;fontSize=22;fillColor=#fff2cc;strokeColor=none;opacity=50;connectable=0;allowArrows=0;" parent="1" vertex="1">
          <mxGeometry x="120" y="600" width="850" height="370" as="geometry" />
        </mxCell>
        <mxCell id="ekC-Y903MRdc_zd-h8_r-16" value="Sockets" style="rounded=0;whiteSpace=wrap;html=1;glass=0;comic=0;sketch=0;fontSize=22;fontStyle=1;" parent="1" vertex="1">
          <mxGeometry x="130" y="700" width="200" height="80" as="geometry" />
        </mxCell>
        <mxCell id="ekC-Y903MRdc_zd-h8_r-17" value="Namespaces / Cgroups" style="rounded=0;whiteSpace=wrap;html=1;glass=0;comic=0;sketch=0;fillColor=default;gradientColor=none;fontSize=22;fontStyle=1" parent="1" vertex="1">
          <mxGeometry x="130" y="610" width="830" height="80" as="geometry" />
        </mxCell>
        <mxCell id="ekC-Y903MRdc_zd-h8_r-20" value="Container Runtime" style="rounded=0;whiteSpace=wrap;html=1;glass=0;comic=0;sketch=0;fillColor=default;gradientColor=none;fontSize=22;fontStyle=1" parent="1" vertex="1">
          <mxGeometry x="130" y="230" width="830" height="80" as="geometry" />
        </mxCell>
        <mxCell id="ekC-Y903MRdc_zd-h8_r-21" value="Containers" style="rounded=0;whiteSpace=wrap;html=1;glass=0;comic=0;sketch=0;fillColor=default;gradientColor=none;fontSize=22;fontStyle=1" parent="1" vertex="1">
          <mxGeometry x="130" y="320" width="410" height="80" as="geometry" />
        </mxCell>
        <mxCell id="ekC-Y903MRdc_zd-h8_r-28" value="Mounted Filesystems" style="rounded=0;whiteSpace=wrap;html=1;glass=0;comic=0;sketch=0;fontSize=22;fontStyle=1;" parent="1" vertex="1">
          <mxGeometry x="340" y="510" width="410" height="80" as="geometry" />
        </mxCell>
        <mxCell id="ekC-Y903MRdc_zd-h8_r-32" value="Files" style="rounded=0;whiteSpace=wrap;html=1;glass=0;comic=0;sketch=0;fontSize=22;fontStyle=1;" parent="1" vertex="1">
          <mxGeometry x="340" y="420" width="200" height="80" as="geometry" />
        </mxCell>
        <mxCell id="ekC-Y903MRdc_zd-h8_r-33" value="Special Files" style="rounded=0;whiteSpace=wrap;html=1;glass=0;comic=0;sketch=0;fontSize=22;fontStyle=1;" parent="1" vertex="1">
          <mxGeometry x="550" y="420" width="200" height="80" as="geometry" />
        </mxCell>
        <mxCell id="ekC-Y903MRdc_zd-h8_r-35" value="VFS Layer" style="rounded=0;whiteSpace=wrap;html=1;glass=0;comic=0;sketch=0;fillColor=default;gradientColor=none;fontSize=22;fontStyle=1" parent="1" vertex="1">
          <mxGeometry x="340" y="700" width="410" height="80" as="geometry" />
        </mxCell>
        <mxCell id="ekC-Y903MRdc_zd-h8_r-37" value="Filesystem Implementations" style="rounded=0;whiteSpace=wrap;html=1;glass=0;comic=0;sketch=0;fillColor=default;gradientColor=none;fontSize=22;fontStyle=1" parent="1" vertex="1">
          <mxGeometry x="340" y="790" width="200" height="170" as="geometry" />
        </mxCell>
        <mxCell id="ekC-Y903MRdc_zd-h8_r-38" value="TCP/IP Stack" style="rounded=0;whiteSpace=wrap;html=1;glass=0;comic=0;sketch=0;fontSize=22;fontStyle=1;" parent="1" vertex="1">
          <mxGeometry x="130" y="790" width="200" height="80" as="geometry" />
        </mxCell>
        <mxCell id="ekC-Y903MRdc_zd-h8_r-39" value="Device Drivers" style="rounded=0;whiteSpace=wrap;html=1;glass=0;comic=0;sketch=0;fillColor=default;gradientColor=none;fontSize=22;fontStyle=1" parent="1" vertex="1">
          <mxGeometry x="550" y="790" width="200" height="170" as="geometry" />
        </mxCell>
        <mxCell id="ekC-Y903MRdc_zd-h8_r-42" value="NIC Driver" style="rounded=0;whiteSpace=wrap;html=1;glass=0;comic=0;sketch=0;fontSize=22;fontStyle=1;" parent="1" vertex="1">
          <mxGeometry x="130" y="880" width="200" height="80" as="geometry" />
        </mxCell>
        <mxCell id="ekC-Y903MRdc_zd-h8_r-45" value="Disk" style="rounded=0;whiteSpace=wrap;html=1;glass=0;comic=0;sketch=0;fillColor=default;gradientColor=none;fontSize=22;fontStyle=1" parent="1" vertex="1">
          <mxGeometry x="340" y="980" width="200" height="80" as="geometry" />
        </mxCell>
        <mxCell id="ekC-Y903MRdc_zd-h8_r-46" value="Network Card" style="rounded=0;whiteSpace=wrap;html=1;glass=0;comic=0;sketch=0;fontSize=22;fontStyle=1;" parent="1" vertex="1">
          <mxGeometry x="130" y="980" width="200" height="80" as="geometry" />
        </mxCell>
        <mxCell id="sMfxZAHeSW23RDgXS9Ej-5" value="Memory" style="rounded=0;whiteSpace=wrap;html=1;glass=0;comic=0;sketch=0;fillColor=default;gradientColor=none;fontSize=22;fontStyle=1" parent="1" vertex="1">
          <mxGeometry x="550" y="980" width="200" height="80" as="geometry" />
        </mxCell>
        <mxCell id="sMfxZAHeSW23RDgXS9Ej-13" value="User Memory" style="rounded=0;whiteSpace=wrap;html=1;fontSize=26;horizontal=0;fillColor=#dae8fc;strokeColor=#6c8ebf;" parent="1" vertex="1">
          <mxGeometry x="60" y="130" width="50" height="375" as="geometry" />
        </mxCell>
        <mxCell id="sMfxZAHeSW23RDgXS9Ej-14" value="Kernel Memory" style="rounded=0;whiteSpace=wrap;html=1;fontSize=26;horizontal=0;fillColor=#fff2cc;strokeColor=#d6b656;" parent="1" vertex="1">
          <mxGeometry x="60" y="506" width="50" height="464" as="geometry" />
        </mxCell>
        <mxCell id="sMfxZAHeSW23RDgXS9Ej-16" value="CPU / Cache" style="rounded=0;whiteSpace=wrap;html=1;glass=0;comic=0;sketch=0;fillColor=default;gradientColor=none;fontSize=22;fontStyle=1" parent="1" vertex="1">
          <mxGeometry x="760" y="980" width="200" height="80" as="geometry" />
        </mxCell>
        <mxCell id="sMfxZAHeSW23RDgXS9Ej-17" value="Scheduler" style="rounded=0;whiteSpace=wrap;html=1;glass=0;comic=0;sketch=0;fillColor=default;gradientColor=none;fontSize=22;fontStyle=1" parent="1" vertex="1">
          <mxGeometry x="760" y="790" width="200" height="170" as="geometry" />
        </mxCell>
        <mxCell id="sMfxZAHeSW23RDgXS9Ej-19" value="PIDs + IPC Mechanisms" style="rounded=0;whiteSpace=wrap;html=1;glass=0;comic=0;sketch=0;fillColor=default;gradientColor=none;fontSize=22;fontStyle=1" parent="1" vertex="1">
          <mxGeometry x="760" y="700" width="200" height="80" as="geometry" />
        </mxCell>
        <mxCell id="sMfxZAHeSW23RDgXS9Ej-21" value="Access Control&lt;br&gt;(DAC, MAC, etc.)" style="rounded=0;whiteSpace=wrap;html=1;glass=0;comic=0;sketch=0;fontSize=17;fontStyle=1;verticalAlign=middle;" parent="1" vertex="1">
          <mxGeometry x="760" y="510" width="200" height="80" as="geometry" />
        </mxCell>
        <mxCell id="sMfxZAHeSW23RDgXS9Ej-22" value="Processes Threads" style="rounded=0;whiteSpace=wrap;html=1;glass=0;comic=0;sketch=0;fontSize=20;fontStyle=1;" parent="1" vertex="1">
          <mxGeometry x="760" y="420" width="200" height="80" as="geometry" />
        </mxCell>
        <mxCell id="sMfxZAHeSW23RDgXS9Ej-32" value="HW" style="rounded=0;whiteSpace=wrap;html=1;fontSize=26;horizontal=0;fillColor=#ffe6cc;strokeColor=#d79b00;" parent="1" vertex="1">
          <mxGeometry x="60" y="970" width="50" height="100" as="geometry" />
        </mxCell>
        <mxCell id="sMfxZAHeSW23RDgXS9Ej-35" value="Network Interfaces" style="rounded=0;whiteSpace=wrap;html=1;glass=0;comic=0;sketch=0;fontSize=22;fontStyle=1;" parent="1" vertex="1">
          <mxGeometry x="130" y="510" width="200" height="80" as="geometry" />
        </mxCell>
        <mxCell id="sMfxZAHeSW23RDgXS9Ej-36" value="L7 Protocols" style="rounded=0;whiteSpace=wrap;html=1;glass=0;comic=0;sketch=0;fontSize=22;fontStyle=1;" parent="1" vertex="1">
          <mxGeometry x="130" y="420" width="200" height="80" as="geometry" />
        </mxCell>
        <mxCell id="sMfxZAHeSW23RDgXS9Ej-38" value="Container Images" style="rounded=0;whiteSpace=wrap;html=1;glass=0;comic=0;sketch=0;fillColor=default;gradientColor=none;fontSize=22;fontStyle=1" parent="1" vertex="1">
          <mxGeometry x="130" y="140" width="830" height="80" as="geometry" />
        </mxCell>
        <mxCell id="sMfxZAHeSW23RDgXS9Ej-41" value="Container Registries" style="rounded=0;whiteSpace=wrap;html=1;glass=0;comic=0;sketch=0;fillColor=default;gradientColor=none;fontSize=22;fontStyle=1" parent="1" vertex="1">
          <mxGeometry x="130" y="40" width="830" height="80" as="geometry" />
        </mxCell>
        <mxCell id="sMfxZAHeSW23RDgXS9Ej-51" value="Container Runtime API" style="rounded=0;whiteSpace=wrap;html=1;glass=0;comic=0;sketch=0;fillColor=default;gradientColor=none;fontSize=22;fontStyle=1" parent="1" vertex="1">
          <mxGeometry x="550" y="320" width="410" height="80" as="geometry" />
        </mxCell>
        <mxCell id="ZLbj5sznVp5AVHI9hBxj-6" value="A" style="text;html=1;strokeColor=none;fillColor=none;align=left;verticalAlign=middle;whiteSpace=wrap;rounded=0;fontSize=16;fontColor=#B85450;fontStyle=1" parent="1" vertex="1">
          <mxGeometry x="130" y="40" width="70" height="30" as="geometry" />
        </mxCell>
        <mxCell id="ZLbj5sznVp5AVHI9hBxj-9" value="B" style="text;html=1;strokeColor=none;fillColor=none;align=left;verticalAlign=middle;whiteSpace=wrap;rounded=0;fontSize=16;fontColor=#B85450;fontStyle=1" parent="1" vertex="1">
          <mxGeometry x="130" y="140" width="70" height="30" as="geometry" />
        </mxCell>
        <mxCell id="ZLbj5sznVp5AVHI9hBxj-10" value="C" style="text;html=1;strokeColor=none;fillColor=none;align=left;verticalAlign=middle;whiteSpace=wrap;rounded=0;fontSize=16;fontColor=#B85450;fontStyle=1" parent="1" vertex="1">
          <mxGeometry x="130" y="230" width="70" height="30" as="geometry" />
        </mxCell>
        <mxCell id="ZLbj5sznVp5AVHI9hBxj-11" value="D" style="text;html=1;strokeColor=none;fillColor=none;align=left;verticalAlign=middle;whiteSpace=wrap;rounded=0;fontSize=16;fontColor=#B85450;fontStyle=1" parent="1" vertex="1">
          <mxGeometry x="130" y="320" width="70" height="30" as="geometry" />
        </mxCell>
        <mxCell id="ZLbj5sznVp5AVHI9hBxj-12" value="E" style="text;html=1;strokeColor=none;fillColor=none;align=left;verticalAlign=middle;whiteSpace=wrap;rounded=0;fontSize=16;fontColor=#B85450;fontStyle=1" parent="1" vertex="1">
          <mxGeometry x="550" y="320" width="70" height="30" as="geometry" />
        </mxCell>
        <mxCell id="ZLbj5sznVp5AVHI9hBxj-13" value="F" style="text;html=1;strokeColor=none;fillColor=none;align=left;verticalAlign=middle;whiteSpace=wrap;rounded=0;fontSize=16;fontColor=#B85450;fontStyle=1" parent="1" vertex="1">
          <mxGeometry x="130" y="420" width="70" height="30" as="geometry" />
        </mxCell>
        <mxCell id="ZLbj5sznVp5AVHI9hBxj-14" value="G" style="text;html=1;strokeColor=none;fillColor=none;align=left;verticalAlign=middle;whiteSpace=wrap;rounded=0;fontSize=16;fontColor=#B85450;fontStyle=1" parent="1" vertex="1">
          <mxGeometry x="340" y="420" width="70" height="30" as="geometry" />
        </mxCell>
        <mxCell id="ZLbj5sznVp5AVHI9hBxj-15" value="H" style="text;html=1;strokeColor=none;fillColor=none;align=left;verticalAlign=middle;whiteSpace=wrap;rounded=0;fontSize=16;fontColor=#B85450;fontStyle=1" parent="1" vertex="1">
          <mxGeometry x="550" y="420" width="70" height="30" as="geometry" />
        </mxCell>
        <mxCell id="ZLbj5sznVp5AVHI9hBxj-16" value="I" style="text;html=1;strokeColor=none;fillColor=none;align=left;verticalAlign=middle;whiteSpace=wrap;rounded=0;fontSize=16;fontColor=#B85450;fontStyle=1" parent="1" vertex="1">
          <mxGeometry x="760" y="420" width="70" height="30" as="geometry" />
        </mxCell>
        <mxCell id="ZLbj5sznVp5AVHI9hBxj-17" value="K" style="text;html=1;strokeColor=none;fillColor=none;align=left;verticalAlign=middle;whiteSpace=wrap;rounded=0;fontSize=16;fontColor=#B85450;fontStyle=1" parent="1" vertex="1">
          <mxGeometry x="340" y="510" width="70" height="30" as="geometry" />
        </mxCell>
        <mxCell id="ZLbj5sznVp5AVHI9hBxj-18" value="J" style="text;html=1;strokeColor=none;fillColor=none;align=left;verticalAlign=middle;whiteSpace=wrap;rounded=0;fontSize=16;fontColor=#B85450;fontStyle=1" parent="1" vertex="1">
          <mxGeometry x="130" y="510" width="70" height="30" as="geometry" />
        </mxCell>
        <mxCell id="ZLbj5sznVp5AVHI9hBxj-19" value="L" style="text;html=1;strokeColor=none;fillColor=none;align=left;verticalAlign=middle;whiteSpace=wrap;rounded=0;fontSize=16;fontColor=#B85450;fontStyle=1" parent="1" vertex="1">
          <mxGeometry x="760" y="510" width="70" height="30" as="geometry" />
        </mxCell>
        <mxCell id="ZLbj5sznVp5AVHI9hBxj-20" value="M" style="text;html=1;strokeColor=none;fillColor=none;align=left;verticalAlign=middle;whiteSpace=wrap;rounded=0;fontSize=16;fontColor=#B85450;fontStyle=1" parent="1" vertex="1">
          <mxGeometry x="130" y="610" width="70" height="30" as="geometry" />
        </mxCell>
        <mxCell id="ZLbj5sznVp5AVHI9hBxj-21" value="N" style="text;html=1;strokeColor=none;fillColor=none;align=left;verticalAlign=middle;whiteSpace=wrap;rounded=0;fontSize=16;fontColor=#B85450;fontStyle=1" parent="1" vertex="1">
          <mxGeometry x="130" y="700" width="70" height="30" as="geometry" />
        </mxCell>
        <mxCell id="ZLbj5sznVp5AVHI9hBxj-22" value="O" style="text;html=1;strokeColor=none;fillColor=none;align=left;verticalAlign=middle;whiteSpace=wrap;rounded=0;fontSize=16;fontColor=#B85450;fontStyle=1" parent="1" vertex="1">
          <mxGeometry x="340" y="700" width="70" height="30" as="geometry" />
        </mxCell>
        <mxCell id="ZLbj5sznVp5AVHI9hBxj-23" value="P" style="text;html=1;strokeColor=none;fillColor=none;align=left;verticalAlign=middle;whiteSpace=wrap;rounded=0;fontSize=16;fontColor=#B85450;fontStyle=1" parent="1" vertex="1">
          <mxGeometry x="760" y="700" width="70" height="30" as="geometry" />
        </mxCell>
        <mxCell id="ZLbj5sznVp5AVHI9hBxj-24" value="Q" style="text;html=1;strokeColor=none;fillColor=none;align=left;verticalAlign=middle;whiteSpace=wrap;rounded=0;fontSize=16;fontColor=#B85450;fontStyle=1" parent="1" vertex="1">
          <mxGeometry x="130" y="790" width="70" height="30" as="geometry" />
        </mxCell>
        <mxCell id="ZLbj5sznVp5AVHI9hBxj-25" value="R" style="text;html=1;strokeColor=none;fillColor=none;align=left;verticalAlign=middle;whiteSpace=wrap;rounded=0;fontSize=16;fontColor=#B85450;fontStyle=1" parent="1" vertex="1">
          <mxGeometry x="340" y="790" width="70" height="30" as="geometry" />
        </mxCell>
        <mxCell id="ZLbj5sznVp5AVHI9hBxj-26" value="S" style="text;html=1;strokeColor=none;fillColor=none;align=left;verticalAlign=middle;whiteSpace=wrap;rounded=0;fontSize=16;fontColor=#B85450;fontStyle=1" parent="1" vertex="1">
          <mxGeometry x="550" y="790" width="70" height="30" as="geometry" />
        </mxCell>
        <mxCell id="ZLbj5sznVp5AVHI9hBxj-27" value="T" style="text;html=1;strokeColor=none;fillColor=none;align=left;verticalAlign=middle;whiteSpace=wrap;rounded=0;fontSize=16;fontColor=#B85450;fontStyle=1" parent="1" vertex="1">
          <mxGeometry x="760" y="790" width="70" height="30" as="geometry" />
        </mxCell>
        <mxCell id="ZLbj5sznVp5AVHI9hBxj-28" value="U" style="text;html=1;strokeColor=none;fillColor=none;align=left;verticalAlign=middle;whiteSpace=wrap;rounded=0;fontSize=16;fontColor=#B85450;fontStyle=1" parent="1" vertex="1">
          <mxGeometry x="130" y="880" width="70" height="30" as="geometry" />
        </mxCell>
        <mxCell id="ZLbj5sznVp5AVHI9hBxj-29" value="V" style="text;html=1;strokeColor=none;fillColor=none;align=left;verticalAlign=middle;whiteSpace=wrap;rounded=0;fontSize=16;fontColor=#B85450;fontStyle=1" parent="1" vertex="1">
          <mxGeometry x="130" y="980" width="70" height="30" as="geometry" />
        </mxCell>
        <mxCell id="ZLbj5sznVp5AVHI9hBxj-30" value="W" style="text;html=1;strokeColor=none;fillColor=none;align=left;verticalAlign=middle;whiteSpace=wrap;rounded=0;fontSize=16;fontColor=#B85450;fontStyle=1" parent="1" vertex="1">
          <mxGeometry x="340" y="980" width="70" height="30" as="geometry" />
        </mxCell>
        <mxCell id="ZLbj5sznVp5AVHI9hBxj-31" value="X" style="text;html=1;strokeColor=none;fillColor=none;align=left;verticalAlign=middle;whiteSpace=wrap;rounded=0;fontSize=16;fontColor=#B85450;fontStyle=1" parent="1" vertex="1">
          <mxGeometry x="550" y="980" width="70" height="30" as="geometry" />
        </mxCell>
        <mxCell id="ZLbj5sznVp5AVHI9hBxj-32" value="Y" style="text;html=1;strokeColor=none;fillColor=none;align=left;verticalAlign=middle;whiteSpace=wrap;rounded=0;fontSize=16;fontColor=#B85450;fontStyle=1" parent="1" vertex="1">
          <mxGeometry x="760" y="980" width="70" height="30" as="geometry" />
        </mxCell>
      </root>
    </mxGraphModel>
  </diagram>
</mxfile>
